<svg xmlns="http://www.w3.org/2000/svg" xmlns:xlink="http://www.w3.org/1999/xlink" width="50" zoomAndPan="magnify" viewBox="0 0 37.5 37.499999" height="50" preserveAspectRatio="xMidYMid meet" version="1.0"><defs><clipPath id="db7823ce23"><path d="M 0 0 L 37.007812 0 L 37.007812 37.007812 L 0 37.007812 Z M 0 0 " clip-rule="nonzero"/></clipPath><clipPath id="4f2968b31b"><path d="M 1 2.300781 L 10 2.300781 L 10 12 L 1 12 Z M 1 2.300781 " clip-rule="nonzero"/></clipPath><clipPath id="8a4749fd51"><path d="M 2 2.300781 L 10 2.300781 L 10 6 L 2 6 Z M 2 2.300781 " clip-rule="nonzero"/></clipPath><clipPath id="c64e4937cf"><path d="M 19 2.300781 L 36 2.300781 L 36 18 L 19 18 Z M 19 2.300781 " clip-rule="nonzero"/></clipPath><clipPath id="4b922f0810"><path d="M 1 16 L 15 16 L 15 34.855469 L 1 34.855469 Z M 1 16 " clip-rule="nonzero"/></clipPath><clipPath id="7506a4a799"><path d="M 0.03125 15 L 4 15 L 4 19 L 0.03125 19 Z M 0.03125 15 " clip-rule="nonzero"/></clipPath><clipPath id="8b2a7e71d5"><path d="M 1 2.300781 L 10 2.300781 L 10 12 L 1 12 Z M 1 2.300781 " clip-rule="nonzero"/></clipPath></defs><g clip-path="url(#db7823ce23)"><path fill="#ffffff" d="M 0 0 L 37.007812 0 L 37.007812 37.007812 L 0 37.007812 Z M 0 0 " fill-opacity="1" fill-rule="nonzero"/></g><g clip-path="url(#4f2968b31b)"><path fill="#fdc333" d="M 7.882812 9.332031 L 8.605469 8.5 L 7.644531 5.605469 L 8.847656 4.363281 C 9.421875 3.703125 9.300781 3.085938 8.972656 2.800781 C 8.679688 2.542969 8.019531 2.480469 7.445312 3.144531 L 6.394531 4.515625 L 3.242188 3.917969 L 2.519531 4.75 L 5.390625 5.820312 L 3.175781 8.714844 L 2.113281 8.40625 L 1.617188 8.976562 L 3.171875 9.621094 L 4.011719 11.039062 L 4.507812 10.46875 L 4.007812 9.355469 L 6.496094 6.789062 Z M 7.882812 9.332031 " fill-opacity="1" fill-rule="nonzero"/></g><g clip-path="url(#8a4749fd51)"><path fill="#ffffff" d="M 3.386719 4.691406 L 6.539062 5.289062 L 7.59375 3.914062 C 8.164062 3.253906 8.824219 3.316406 9.121094 3.570312 C 9.15625 3.601562 9.1875 3.640625 9.21875 3.679688 C 9.304688 3.300781 9.179688 2.980469 8.972656 2.800781 C 8.679688 2.542969 8.019531 2.480469 7.445312 3.144531 L 6.394531 4.515625 L 3.242188 3.917969 L 2.519531 4.75 L 3.136719 4.980469 Z M 3.386719 4.691406 " fill-opacity="1" fill-rule="nonzero"/></g><path fill="#ffffff" d="M 2.257812 9.175781 L 3.320312 9.488281 L 5.539062 6.59375 L 4.964844 6.378906 L 3.175781 8.714844 L 2.113281 8.40625 L 1.617188 8.980469 L 2.214844 9.226562 Z M 2.257812 9.175781 " fill-opacity="1" fill-rule="nonzero"/><path fill="#41c0f0" d="M 31.859375 18.507812 C 31.859375 19.363281 31.773438 20.210938 31.609375 21.054688 C 31.441406 21.894531 31.195312 22.710938 30.867188 23.503906 C 30.539062 24.296875 30.140625 25.046875 29.664062 25.761719 C 29.191406 26.472656 28.652344 27.132812 28.046875 27.742188 C 27.441406 28.347656 26.785156 28.886719 26.074219 29.363281 C 25.363281 29.839844 24.613281 30.242188 23.824219 30.570312 C 23.035156 30.898438 22.222656 31.148438 21.386719 31.316406 C 20.546875 31.480469 19.699219 31.566406 18.847656 31.566406 C 17.992188 31.566406 17.144531 31.480469 16.308594 31.316406 C 15.46875 31.148438 14.65625 30.898438 13.867188 30.570312 C 13.078125 30.242188 12.328125 29.839844 11.617188 29.363281 C 10.90625 28.886719 10.25 28.347656 9.644531 27.742188 C 9.042969 27.132812 8.503906 26.472656 8.027344 25.761719 C 7.554688 25.046875 7.152344 24.296875 6.824219 23.503906 C 6.5 22.710938 6.25 21.894531 6.085938 21.054688 C 5.917969 20.210938 5.835938 19.363281 5.835938 18.507812 C 5.835938 17.648438 5.917969 16.800781 6.085938 15.957031 C 6.25 15.117188 6.5 14.300781 6.824219 13.507812 C 7.152344 12.714844 7.554688 11.964844 8.027344 11.25 C 8.503906 10.539062 9.042969 9.878906 9.644531 9.269531 C 10.25 8.664062 10.90625 8.125 11.617188 7.648438 C 12.328125 7.171875 13.078125 6.769531 13.867188 6.441406 C 14.65625 6.113281 15.46875 5.863281 16.308594 5.699219 C 17.144531 5.53125 17.992188 5.445312 18.847656 5.445312 C 19.699219 5.445312 20.546875 5.53125 21.386719 5.699219 C 22.222656 5.863281 23.035156 6.113281 23.824219 6.441406 C 24.613281 6.769531 25.363281 7.171875 26.074219 7.648438 C 26.785156 8.125 27.441406 8.664062 28.046875 9.269531 C 28.652344 9.878906 29.191406 10.539062 29.664062 11.25 C 30.140625 11.964844 30.539062 12.714844 30.867188 13.507812 C 31.195312 14.300781 31.441406 15.117188 31.609375 15.957031 C 31.773438 16.800781 31.859375 17.648438 31.859375 18.507812 Z M 31.859375 18.507812 " fill-opacity="1" fill-rule="nonzero"/><path fill="#ffffff" d="M 7.59375 19.78125 C 7.59375 12.570312 13.417969 6.722656 20.605469 6.722656 C 23.058594 6.722656 25.351562 7.402344 27.308594 8.585938 C 25.035156 6.628906 22.078125 5.445312 18.847656 5.445312 C 11.660156 5.445312 5.835938 11.292969 5.835938 18.507812 C 5.835938 23.257812 8.363281 27.414062 12.144531 29.699219 C 9.359375 27.304688 7.59375 23.75 7.59375 19.78125 Z M 7.59375 19.78125 " fill-opacity="1" fill-rule="nonzero"/><path fill="#110425" d="M 18.847656 31.859375 C 11.511719 31.859375 5.542969 25.871094 5.542969 18.507812 C 5.542969 11.140625 11.511719 5.152344 18.847656 5.152344 C 26.183594 5.152344 32.152344 11.140625 32.152344 18.507812 C 32.152344 25.871094 26.183594 31.859375 18.847656 31.859375 Z M 18.847656 5.742188 C 11.832031 5.742188 6.128906 11.46875 6.128906 18.507812 C 6.128906 25.546875 11.832031 31.273438 18.847656 31.273438 C 25.859375 31.273438 31.566406 25.546875 31.566406 18.507812 C 31.566406 11.46875 25.859375 5.742188 18.847656 5.742188 Z M 18.847656 5.742188 " fill-opacity="1" fill-rule="nonzero"/><path fill="#110425" d="M 20.578125 31.617188 C 20.511719 31.617188 20.441406 31.589844 20.386719 31.542969 C 20.265625 31.4375 20.25 31.25 20.355469 31.128906 C 23.132812 27.933594 24.722656 23.316406 24.722656 18.464844 C 24.722656 13.660156 23.15625 9.074219 20.429688 5.882812 C 20.324219 5.757812 20.339844 5.574219 20.460938 5.46875 C 20.582031 5.363281 20.769531 5.375 20.875 5.5 C 23.691406 8.792969 25.308594 13.519531 25.308594 18.464844 C 25.308594 23.457031 23.664062 28.214844 20.800781 31.515625 C 20.742188 31.582031 20.660156 31.617188 20.578125 31.617188 Z M 20.578125 31.617188 " fill-opacity="1" fill-rule="nonzero"/><path fill="#110425" d="M 17.039062 31.617188 C 16.957031 31.617188 16.875 31.582031 16.816406 31.511719 C 14 28.21875 12.382812 23.492188 12.382812 18.546875 C 12.382812 13.554688 14.027344 8.796875 16.890625 5.496094 C 17 5.375 17.183594 5.363281 17.304688 5.46875 C 17.429688 5.574219 17.441406 5.761719 17.335938 5.882812 C 14.558594 9.078125 12.96875 13.695312 12.96875 18.546875 C 12.96875 23.355469 14.535156 27.9375 17.261719 31.128906 C 17.367188 31.253906 17.355469 31.4375 17.230469 31.542969 C 17.175781 31.59375 17.109375 31.617188 17.039062 31.617188 Z M 17.039062 31.617188 " fill-opacity="1" fill-rule="nonzero"/><path fill="#110425" d="M 18.890625 24.992188 C 13.914062 24.992188 9.175781 23.34375 5.886719 20.464844 C 5.761719 20.359375 5.75 20.175781 5.855469 20.050781 C 5.964844 19.929688 6.148438 19.917969 6.269531 20.023438 C 9.453125 22.808594 14.054688 24.40625 18.890625 24.40625 C 23.675781 24.40625 28.246094 22.835938 31.421875 20.09375 C 31.546875 19.988281 31.730469 20.003906 31.835938 20.125 C 31.941406 20.25 31.929688 20.4375 31.804688 20.542969 C 28.523438 23.371094 23.8125 24.992188 18.890625 24.992188 Z M 18.890625 24.992188 " fill-opacity="1" fill-rule="nonzero"/><path fill="#110425" d="M 31.613281 17.0625 C 31.546875 17.0625 31.476562 17.039062 31.421875 16.988281 C 28.238281 14.203125 23.640625 12.605469 18.804688 12.605469 C 14.015625 12.605469 9.449219 14.179688 6.269531 16.917969 C 6.144531 17.023438 5.960938 17.007812 5.855469 16.886719 C 5.75 16.761719 5.765625 16.574219 5.886719 16.46875 C 9.171875 13.640625 13.878906 12.019531 18.804688 12.019531 C 23.777344 12.019531 28.519531 13.667969 31.808594 16.546875 C 31.929688 16.652344 31.941406 16.839844 31.835938 16.960938 C 31.777344 17.027344 31.695312 17.0625 31.613281 17.0625 Z M 31.613281 17.0625 " fill-opacity="1" fill-rule="nonzero"/><g clip-path="url(#c64e4937cf)"><path fill="#110425" d="M 35.269531 17.574219 C 35.113281 17.574219 34.980469 17.453125 34.976562 17.292969 C 34.632812 9.183594 27.773438 2.773438 19.6875 3 C 19.683594 3 19.683594 3 19.679688 3 C 19.519531 3 19.390625 2.875 19.386719 2.714844 C 19.382812 2.550781 19.507812 2.417969 19.671875 2.410156 C 23.769531 2.296875 27.664062 3.773438 30.65625 6.574219 C 33.644531 9.375 35.386719 13.171875 35.5625 17.269531 C 35.570312 17.429688 35.441406 17.566406 35.28125 17.574219 C 35.277344 17.574219 35.273438 17.574219 35.269531 17.574219 Z M 35.269531 17.574219 " fill-opacity="1" fill-rule="nonzero"/></g><path fill="#110425" d="M 35.355469 18.246094 C 35.289062 18.246094 35.222656 18.222656 35.171875 18.179688 L 33.445312 16.773438 C 33.320312 16.671875 33.300781 16.484375 33.402344 16.359375 C 33.503906 16.234375 33.691406 16.214844 33.816406 16.316406 L 35.304688 17.53125 L 36.445312 16.011719 C 36.542969 15.882812 36.726562 15.855469 36.855469 15.953125 C 36.984375 16.050781 37.011719 16.238281 36.914062 16.367188 L 35.589844 18.128906 C 35.542969 18.191406 35.472656 18.234375 35.394531 18.242188 C 35.378906 18.246094 35.367188 18.246094 35.355469 18.246094 Z M 35.355469 18.246094 " fill-opacity="1" fill-rule="nonzero"/><g clip-path="url(#4b922f0810)"><path fill="#110425" d="M 13.808594 34.867188 C 13.789062 34.867188 13.769531 34.863281 13.75 34.859375 C 9.742188 34.023438 6.289062 31.679688 4.023438 28.261719 C 1.757812 24.84375 0.9375 20.746094 1.714844 16.71875 C 1.746094 16.558594 1.898438 16.453125 2.058594 16.484375 C 2.214844 16.515625 2.320312 16.671875 2.289062 16.832031 C 0.753906 24.800781 5.949219 32.628906 13.871094 34.285156 C 14.027344 34.316406 14.128906 34.472656 14.097656 34.632812 C 14.070312 34.773438 13.945312 34.867188 13.808594 34.867188 Z M 13.808594 34.867188 " fill-opacity="1" fill-rule="nonzero"/></g><g clip-path="url(#7506a4a799)"><path fill="#110425" d="M 3.425781 18.164062 C 3.339844 18.164062 3.25 18.125 3.195312 18.050781 L 2.023438 16.523438 L 0.566406 17.734375 C 0.441406 17.839844 0.257812 17.820312 0.152344 17.695312 C 0.0507812 17.570312 0.0664062 17.386719 0.191406 17.28125 L 1.882812 15.875 C 1.945312 15.824219 2.023438 15.800781 2.101562 15.808594 C 2.183594 15.816406 2.253906 15.859375 2.304688 15.921875 L 3.660156 17.691406 C 3.757812 17.820312 3.734375 18.003906 3.605469 18.105469 C 3.550781 18.144531 3.488281 18.164062 3.425781 18.164062 Z M 3.425781 18.164062 " fill-opacity="1" fill-rule="nonzero"/></g><g clip-path="url(#8b2a7e71d5)"><path fill="#110425" d="M 4.011719 11.335938 C 4.003906 11.335938 3.992188 11.335938 3.984375 11.335938 C 3.890625 11.324219 3.808594 11.273438 3.757812 11.191406 L 2.96875 9.855469 L 1.503906 9.25 C 1.417969 9.214844 1.351562 9.136719 1.332031 9.046875 C 1.308594 8.953125 1.332031 8.855469 1.394531 8.785156 L 1.890625 8.210938 C 1.964844 8.125 2.082031 8.089844 2.195312 8.121094 L 3.066406 8.375 L 4.917969 5.957031 L 2.417969 5.027344 C 2.328125 4.996094 2.261719 4.917969 2.238281 4.824219 C 2.210938 4.730469 2.234375 4.632812 2.300781 4.558594 L 3.019531 3.726562 C 3.089844 3.644531 3.195312 3.609375 3.296875 3.628906 L 6.269531 4.191406 L 7.214844 2.964844 C 7.21875 2.957031 7.21875 2.953125 7.222656 2.949219 C 7.574219 2.546875 8.007812 2.324219 8.441406 2.324219 C 8.71875 2.324219 8.980469 2.417969 9.164062 2.578125 C 9.40625 2.785156 9.542969 3.101562 9.542969 3.441406 C 9.542969 3.703125 9.460938 4.109375 9.070312 4.558594 C 9.066406 4.5625 9.0625 4.566406 9.058594 4.570312 L 7.980469 5.679688 L 8.882812 8.40625 C 8.914062 8.507812 8.894531 8.613281 8.824219 8.691406 L 8.105469 9.527344 C 8.042969 9.597656 7.949219 9.636719 7.851562 9.625 C 7.757812 9.617188 7.671875 9.558594 7.625 9.476562 L 6.429688 7.28125 L 4.355469 9.417969 L 4.773438 10.347656 C 4.820312 10.449219 4.804688 10.574219 4.730469 10.660156 L 4.234375 11.234375 C 4.175781 11.296875 4.097656 11.335938 4.011719 11.335938 Z M 2.105469 8.863281 L 3.28125 9.351562 C 3.339844 9.375 3.390625 9.417969 3.421875 9.472656 L 4.054688 10.539062 L 4.164062 10.417969 L 3.738281 9.476562 C 3.691406 9.367188 3.710938 9.238281 3.796875 9.148438 L 6.285156 6.582031 C 6.351562 6.515625 6.445312 6.484375 6.535156 6.496094 C 6.628906 6.511719 6.710938 6.566406 6.753906 6.648438 L 7.9375 8.820312 L 8.273438 8.433594 L 7.367188 5.695312 C 7.332031 5.59375 7.359375 5.476562 7.4375 5.398438 L 8.632812 4.167969 C 8.84375 3.921875 8.953125 3.667969 8.953125 3.441406 C 8.953125 3.269531 8.890625 3.117188 8.78125 3.023438 C 8.703125 2.953125 8.574219 2.914062 8.441406 2.914062 C 8.179688 2.914062 7.90625 3.058594 7.671875 3.328125 L 6.625 4.695312 C 6.558594 4.78125 6.449219 4.824219 6.339844 4.804688 L 3.351562 4.238281 L 3.019531 4.625 L 5.492188 5.546875 C 5.582031 5.578125 5.648438 5.652344 5.671875 5.742188 C 5.699219 5.832031 5.679688 5.925781 5.625 6 L 3.40625 8.894531 C 3.332031 8.988281 3.210938 9.03125 3.09375 8.996094 L 2.210938 8.738281 Z M 2.105469 8.863281 " fill-opacity="1" fill-rule="nonzero"/></g></svg>