<?xml version="1.0" standalone="no"?>
<!DOCTYPE svg PUBLIC "-//W3C//DTD SVG 20010904//EN"
 "http://www.w3.org/TR/2001/REC-SVG-20010904/DTD/svg10.dtd">
<svg version="1.0" xmlns="http://www.w3.org/2000/svg"
 width="512.000000pt" height="512.000000pt" viewBox="0 0 512.000000 512.000000"
 preserveAspectRatio="xMidYMid meet">

<g transform="translate(0.000000,512.000000) scale(0.100000,-0.100000)"
fill="#000000" stroke="none">
<path d="M2540 4826 c-108 -31 -169 -68 -229 -141 -44 -54 -81 -147 -81 -207
l0 -38 -124 0 c-130 0 -180 -10 -196 -40 -16 -30 -12 -68 10 -90 18 -18 33
-20 159 -20 77 0 142 -3 144 -7 3 -5 7 -77 8 -162 l4 -154 -46 -11 c-25 -7
-61 -22 -79 -33 -49 -30 -1044 -1031 -1063 -1068 -24 -48 -36 -134 -27 -187
17 -90 46 -127 313 -395 l260 -262 -41 -48 c-22 -26 -56 -63 -76 -82 l-35 -34
-56 38 c-77 50 -206 109 -290 131 -107 29 -333 26 -440 -4 -656 -187 -873
-994 -396 -1473 37 -36 80 -75 96 -87 l30 -21 -110 -1 c-60 -1 -126 -6 -145
-13 -67 -23 -67 -111 0 -134 46 -15 4875 -18 4931 -3 23 6 40 19 47 36 17 36
15 49 -12 81 l-24 28 -226 3 -226 3 48 38 c220 174 344 451 329 736 -20 384
-274 699 -649 805 -134 38 -377 36 -479 -5 -12 -5 -23 11 -47 69 -18 42 -32
77 -32 80 0 2 84 6 188 8 214 4 248 13 321 88 133 137 95 363 -77 451 -37 19
-66 25 -139 27 l-93 4 0 81 c0 103 -23 156 -84 192 -41 24 -50 25 -206 25
l-164 0 -225 122 c-160 87 -243 138 -283 175 -59 54 -89 64 -128 43 -30 -16
-40 -62 -23 -99 29 -59 109 -115 359 -251 l249 -135 175 -5 175 -5 3 -31 3
-32 -47 24 c-83 42 -203 22 -253 -42 -10 -13 -23 -24 -27 -24 -5 0 -138 60
-297 132 l-287 133 -202 163 c-226 181 -235 185 -300 132 l-36 -30 -38 29
c-118 85 -184 216 -184 363 0 85 10 104 58 118 69 18 93 3 266 -169 102 -101
171 -162 189 -167 67 -16 111 68 68 127 l-21 28 38 6 c171 29 313 153 369 324
19 59 30 423 15 530 -24 169 -135 287 -317 337 -62 17 -234 17 -295 0z m468
-674 c-4 -110 -8 -136 -30 -184 -61 -133 -204 -210 -343 -184 l-35 7 0 244 0
245 206 0 207 0 -5 -128z m-935 -715 c34 -75 107 -169 162 -210 25 -18 44 -34
45 -37 0 -3 -101 -106 -225 -230 l-225 -225 -177 178 -178 177 270 270 269
269 16 -67 c9 -37 28 -93 43 -125z m568 -364 l134 -108 -150 -3 c-82 -2 -192
0 -244 3 l-94 7 104 104 c57 57 107 104 110 104 4 0 67 -48 140 -107z m306
-289 c15 -11 34 -38 40 -58 21 -62 3 -87 -190 -260 l-176 -157 -93 3 c-119 4
-123 14 -39 101 48 50 61 70 61 95 0 39 -39 72 -86 72 l-34 0 0 108 c0 60 3
112 7 116 4 4 114 6 244 4 223 -3 239 -4 266 -24z m387 -101 c143 -67 149 -71
162 -109 26 -76 123 -144 205 -144 67 0 145 47 181 110 l23 40 115 0 c97 0
120 -3 147 -20 91 -55 80 -184 -19 -236 -22 -12 -136 -14 -660 -14 l-633 0 51
48 c27 26 83 77 122 114 90 83 116 135 115 230 0 64 1 66 21 58 12 -5 88 -39
170 -77z m-911 -551 c-17 -15 -58 -51 -91 -79 l-59 -53 -7 52 c-4 28 -10 64
-13 79 l-5 29 103 0 104 -1 -32 -27z m849 -69 c-49 -54 -100 -107 -112 -118
-13 -11 -76 -77 -141 -147 -105 -112 -119 -131 -119 -162 0 -41 28 -66 76 -66
28 0 61 30 315 295 228 238 287 295 308 295 23 0 30 -10 63 -93 21 -50 40 -99
43 -108 5 -12 -9 -26 -52 -52 -197 -120 -350 -339 -399 -571 -18 -84 -20 -248
-4 -334 35 -196 153 -400 299 -516 33 -27 61 -51 61 -53 0 -1 -501 -3 -1112
-3 l-1113 0 35 27 c161 122 288 328 327 532 10 50 21 91 26 91 4 0 7 -34 7
-76 0 -85 15 -121 60 -148 23 -13 60 -16 219 -16 l190 0 46 -29 c165 -105 387
-36 477 148 19 37 23 63 23 136 0 79 -3 97 -28 144 l-27 53 35 39 c41 45 46
88 15 119 -34 34 -78 26 -126 -21 l-41 -40 -39 17 c-26 11 -65 17 -116 17 -65
1 -86 -4 -137 -30 l-61 -30 0 217 0 216 203 181 202 182 344 0 343 1 -90 -97z
m-1164 -389 l3 -445 -78 3 -78 3 -30 358 -29 357 94 95 c65 65 98 91 105 84 6
-6 11 -165 13 -455z m-363 197 c5 -9 55 -568 55 -618 0 -14 -6 -23 -15 -23
-18 0 -16 -6 -44 124 -24 113 -77 231 -146 325 l-47 64 78 78 c63 64 81 76 95
68 10 -5 20 -13 24 -18z m-660 -12 c75 -23 146 -56 207 -97 l39 -25 -22 -23
-22 -23 -41 28 c-132 90 -326 129 -487 97 -205 -41 -384 -177 -474 -361 -49
-98 -68 -183 -68 -295 -1 -120 14 -182 68 -295 183 -382 678 -494 1013 -230
123 96 210 237 242 390 11 52 13 55 41 55 29 0 29 -1 23 -42 -21 -141 -92
-277 -204 -388 -141 -142 -284 -207 -475 -217 -328 -18 -623 178 -730 484 -67
193 -50 398 48 587 48 95 177 230 269 284 65 39 172 78 249 91 84 15 243 6
324 -20z m3220 6 c33 -9 98 -35 145 -58 70 -34 102 -58 181 -136 78 -79 102
-111 136 -181 60 -123 77 -194 77 -330 0 -90 -5 -133 -22 -195 -58 -204 -192
-364 -382 -460 -117 -59 -170 -70 -325 -69 -124 0 -149 3 -220 27 -115 38
-199 91 -290 182 -138 138 -203 282 -212 475 -14 266 106 503 332 653 41 28
48 26 59 -9 5 -17 -2 -27 -35 -49 -235 -155 -349 -447 -279 -719 109 -429 589
-634 980 -419 38 21 96 68 141 113 61 61 86 96 123 171 48 99 76 209 76 299 0
62 -26 194 -46 233 -29 56 -94 57 -130 2 -14 -22 -15 -31 -4 -73 38 -149 30
-268 -29 -387 -159 -322 -571 -392 -825 -140 -186 184 -207 470 -48 677 34 46
138 136 146 127 2 -2 47 -111 101 -241 54 -130 106 -245 116 -254 45 -41 119
-6 119 55 0 14 -45 132 -99 261 -80 194 -95 237 -83 244 8 5 53 9 101 9 101 0
180 -20 268 -69 69 -38 101 -42 131 -16 35 29 37 64 7 101 -31 37 -165 103
-244 121 -65 15 -193 18 -277 7 -58 -8 -60 -8 -72 17 -11 24 -10 25 41 35 29
6 63 13 77 15 47 8 205 -3 265 -19z m-3290 -207 c51 -12 167 -69 163 -79 -2
-4 -78 -87 -171 -183 -92 -97 -172 -187 -179 -201 -8 -18 -8 -32 2 -56 23 -54
50 -59 321 -59 l241 0 -6 -37 c-11 -61 -73 -178 -125 -235 -85 -93 -204 -150
-338 -163 -181 -18 -369 77 -475 239 -98 152 -106 364 -18 520 119 211 352
312 585 254z m514 -160 c29 -53 62 -149 75 -220 7 -37 6 -38 -23 -38 -25 0
-32 5 -37 28 -25 116 -65 211 -118 281 l-26 35 21 22 22 23 28 -38 c15 -22 41
-63 58 -93z m-187 -109 c21 -41 41 -93 44 -116 l7 -43 -162 0 c-88 0 -161 3
-161 6 0 13 215 234 225 231 5 -2 27 -37 47 -78z m1225 -145 c38 -28 71 -79
79 -121 13 -68 -32 -155 -97 -189 l-29 -15 0 102 c0 111 -11 144 -60 173 -16
9 -49 16 -74 16 -25 0 -46 4 -46 8 0 4 17 18 38 30 48 29 147 27 189 -4z
m-197 -219 l0 -35 -220 0 -220 0 0 35 0 35 220 0 220 0 0 -35z"/>
<path d="M2850 4227 c-36 -18 -51 -54 -47 -114 4 -65 27 -93 74 -93 53 0 73
28 73 104 0 90 -41 133 -100 103z"/>
</g>
</svg>
