<?xml version="1.0" standalone="no"?>
<!DOCTYPE svg PUBLIC "-//W3C//DTD SVG 20010904//EN"
 "http://www.w3.org/TR/2001/REC-SVG-20010904/DTD/svg10.dtd">
<svg version="1.0" xmlns="http://www.w3.org/2000/svg"
 width="512.000000pt" height="512.000000pt" viewBox="0 0 512.000000 512.000000"
 preserveAspectRatio="xMidYMid meet">

<g transform="translate(0.000000,512.000000) scale(0.100000,-0.100000)"
fill="#000000" stroke="none">
<path d="M2473 5104 c-23 -9 -61 -32 -85 -53 -24 -21 -58 -43 -75 -49 -52 -18
-98 -58 -129 -114 -52 -95 -34 -219 42 -294 l23 -24 -46 -43 c-108 -99 -163
-228 -163 -382 0 -159 56 -285 170 -388 241 -217 615 -166 792 107 55 85 78
168 78 281 0 154 -55 283 -163 382 l-46 43 23 24 c76 75 94 199 42 294 -31 56
-77 96 -129 114 -17 6 -51 28 -75 49 -74 65 -170 84 -259 53z m-166 -822 c160
-83 352 -82 511 3 36 19 69 32 73 29 21 -13 41 -119 37 -193 -8 -142 -77 -245
-205 -308 -69 -34 -84 -38 -157 -38 -169 0 -298 88 -357 244 -17 45 -20 72
-17 141 4 81 28 166 45 158 5 -2 36 -18 70 -36z"/>
<path d="M3805 4951 c-74 -33 -138 -119 -138 -184 0 -37 34 -70 72 -70 32 0
71 27 71 49 0 7 12 26 26 43 21 26 33 31 69 31 53 0 92 -29 100 -73 10 -54 -9
-83 -85 -132 -42 -27 -75 -56 -80 -71 -6 -14 -10 -67 -10 -117 l0 -92 -234
-143 c-294 -179 -308 -190 -336 -247 -18 -37 -21 -59 -18 -114 4 -84 36 -137
105 -178 l48 -28 493 -3 c316 -2 506 1 531 8 134 36 202 189 141 316 -28 57
-37 63 -330 243 l-245 149 -3 69 c-3 67 -2 69 29 87 52 31 99 77 122 120 30
56 29 164 -1 222 -24 47 -81 100 -128 120 -48 20 -151 17 -199 -5z m357 -897
c122 -75 233 -145 246 -157 22 -20 30 -70 14 -93 -21 -32 -52 -34 -515 -34
-455 0 -465 0 -491 21 -33 26 -36 77 -5 105 11 10 127 85 257 165 175 107 241
143 254 137 9 -4 117 -69 240 -144z"/>
<path d="M665 4423 c-44 -23 -84 -63 -108 -108 -21 -37 -22 -54 -22 -245 0
-223 3 -238 64 -303 85 -93 237 -93 322 0 44 47 59 87 59 158 l0 65 224 0 224
0 7 -67 c8 -75 24 -113 64 -156 85 -93 237 -93 322 0 56 60 59 75 59 303 0
188 -2 215 -19 248 -41 80 -113 122 -206 122 -125 0 -206 -84 -221 -228 l-7
-72 -221 2 -221 3 -6 75 c-8 108 -48 170 -131 204 -48 20 -144 20 -183 -1z"/>
<path d="M1259 3543 c-157 -80 -164 -300 -12 -390 l48 -28 368 -3 367 -3 0
-374 0 -374 -41 -65 c-83 -132 -109 -260 -109 -541 0 -83 4 -165 10 -184 15
-55 31 -60 168 -61 l122 0 -2 -647 -3 -646 -122 -41 c-67 -23 -132 -49 -143
-58 -43 -37 -12 -128 44 -128 35 0 336 104 357 123 18 17 19 40 19 707 l0 690
53 0 c90 1 107 31 107 197 l0 103 70 0 70 0 0 -103 c0 -163 17 -196 103 -197
l47 0 0 -662 c0 -409 4 -677 10 -699 6 -20 20 -41 33 -47 37 -20 320 -112 342
-112 57 0 88 90 45 128 -11 9 -76 35 -143 58 l-122 41 -3 646 -2 647 122 0
c137 1 153 6 168 61 13 44 12 307 0 427 -12 114 -39 196 -93 287 l-42 70 -5
445 -5 445 -28 57 c-30 61 -64 95 -131 131 -40 21 -50 22 -366 22 l-325 0 -49
-25 c-55 -28 -110 -87 -128 -137 l-12 -33 -349 0 c-401 0 -406 1 -407 78 0 59
26 72 139 72 84 0 102 3 125 21 33 26 36 79 6 109 -18 18 -33 20 -133 20 -104
0 -118 -2 -168 -27z m1671 -973 l0 -150 -370 0 -370 0 0 150 0 150 370 0 370
0 0 -150z"/>
<path d="M3399 3438 c-44 -47 -104 -153 -131 -228 -21 -60 -23 -84 -26 -331
-3 -266 -3 -267 19 -288 22 -20 32 -21 273 -21 190 1 255 4 268 14 29 22 38
63 38 177 l0 109 75 0 75 0 0 -130 c0 -183 -22 -170 294 -170 270 1 276 2 296
54 13 34 13 311 0 434 -5 51 -19 120 -31 155 -23 71 -84 177 -128 225 l-30 32
-481 0 -481 0 -30 -32z m958 -170 c60 -101 67 -134 71 -350 l4 -198 -145 0
-145 0 -4 131 c-4 177 6 169 -223 169 -95 0 -181 -3 -190 -6 -33 -13 -45 -59
-45 -179 l0 -115 -146 0 -146 0 4 203 c5 220 10 244 70 345 l32 52 416 0 416
0 31 -52z"/>
</g>
</svg>
